<svg xmlns="http://www.w3.org/2000/svg" xmlns:xlink="http://www.w3.org/1999/xlink" width="1920" zoomAndPan="magnify" viewBox="0 0 1440 809.999993" height="1080" preserveAspectRatio="xMidYMid meet" version="1.2"><defs><clipPath id="3e5ec2c8f5"><path d="M 216.605469 221 L 1182 221 L 1182 555 L 216.605469 555 Z M 216.605469 221 "/></clipPath><clipPath id="b7ae9d02ac"><path d="M 1126 332 L 1223.394531 332 L 1223.394531 447 L 1126 447 Z M 1126 332 "/></clipPath></defs><g id="bf6bbf22d0"><g clip-rule="nonzero" clip-path="url(#3e5ec2c8f5)"><path style=" stroke:none;fill-rule:nonzero;fill:#bdbdbd;fill-opacity:1;" d="M 307.179688 513.007812 C 239.300781 490.382812 234.84375 488.617188 224.640625 474.464844 C 204.453125 446.460938 224.285156 408.582031 262.0625 402.996094 C 283.144531 399.878906 300.539062 407.597656 314.625 420.378906 C 315.75 421.398438 312.566406 418.1875 311.425781 417.179688 C 308.59375 414.6875 298.972656 409.597656 295.664062 407.636719 C 294.699219 407.0625 296.675781 408.148438 295.664062 407.636719 C 295.222656 407.4375 295.234375 407.417969 295.664062 407.636719 C 362.609375 438.039062 438.222656 460.164062 512.109375 473.878906 C 647.578125 499.019531 792.648438 497.015625 918.941406 443.507812 C 951.253906 429.816406 981.792969 413.144531 1010.050781 393.953125 C 1043.160156 371.460938 1072.738281 345.535156 1098.804688 317.035156 C 1121.734375 291.972656 1147.886719 263.125 1162.5 233.886719 C 1166.148438 226.578125 1179.394531 230.105469 1177.320312 237.925781 C 1176.449219 241.226562 1164.34375 255.34375 1161.511719 259.511719 C 1148.320312 278.964844 1135.339844 298.277344 1120.042969 316.59375 C 1069.785156 376.769531 1008.640625 431.335938 935.972656 471.632812 C 776.429688 560.105469 584.191406 571.132812 402.789062 535.351562 C 350.789062 525.09375 320.332031 519.613281 271.777344 500.207031 C 271.097656 499.933594 255.566406 494.355469 256.265625 494.589844 C 255.082031 494.28125 257.414062 494.980469 256.265625 494.589844 C 259.871094 495.542969 302.902344 512.46875 307.179688 513.007812 C 309.355469 513.734375 308.789062 513.214844 307.179688 513.007812 Z M 1164.121094 241.117188 C 1159.25 236.367188 1163.714844 228.480469 1171.34375 229.882812 C 1175.914062 230.722656 1174.128906 234.808594 1177.320312 237.925781 C 1182.191406 242.675781 1177.445312 246.472656 1169.816406 245.070312 C 1165.242188 244.230469 1167.320312 244.238281 1164.121094 241.117188 Z M 1176.414062 233 C 1175.679688 239.960938 1180.226562 239.085938 1174.15625 233.886719 C 1168.695312 229.203125 1168.96875 244.3125 1168.328125 240.695312 C 1166.839844 232.347656 1171.683594 242.289062 1170.675781 233.886719 C 1169.835938 226.933594 1169.886719 219.882812 1172.835938 226.886719 C 1174.335938 230.453125 1175.769531 226.261719 1176.414062 229.882812 C 1177.90625 238.230469 1177.28125 224.789062 1176.414062 233 Z M 1171.34375 229.882812 C 1181.640625 225.859375 1173.667969 227.308594 1169.816406 233.886719 C 1167.742188 237.429688 1178.550781 234.386719 1175.179688 236.886719 C 1167.398438 242.652344 1164.121094 241.117188 1153.414062 243.890625 C 1145.625 245.90625 1151.296875 239.574219 1155.144531 233 C 1157.21875 229.453125 1164.960938 234.300781 1168.328125 231.804688 C 1176.105469 226.039062 1161.988281 233.539062 1171.34375 229.882812 Z M 1151.503906 236.886719 C 1143.777344 236.558594 1150.011719 233.195312 1157.226562 229.882812 C 1161.730469 227.816406 1167.488281 221.742188 1172.835938 221.96875 C 1180.5625 222.292969 1184.539062 234.613281 1177.320312 237.925781 C 1172.785156 240.011719 1157.789062 237.148438 1151.503906 236.886719 Z M 1151.503906 236.886719 "/></g><path style=" stroke:none;fill-rule:nonzero;fill:#bdbdbd;fill-opacity:1;" d="M 1177.152344 213.71875 C 1179.894531 212.167969 1183.277344 213.585938 1183.539062 216.390625 L 1187.082031 254.304688 C 1187.371094 257.375 1183.761719 259.765625 1180.75 258.5 L 1140.234375 241.53125 C 1137.214844 240.269531 1137.1875 236.355469 1140.183594 234.660156 Z M 1177.152344 213.71875 "/><path style=" stroke:none;fill-rule:nonzero;fill:#9e9e9e;fill-opacity:1;" d="M 258.691406 450.523438 L 282.726562 458.492188 C 282.988281 458.578125 283.222656 458.714844 283.433594 458.894531 C 283.640625 459.074219 283.808594 459.289062 283.929688 459.535156 C 284.054688 459.78125 284.125 460.042969 284.148438 460.316406 C 284.167969 460.59375 284.132812 460.859375 284.046875 461.121094 C 283.960938 461.386719 283.824219 461.621094 283.644531 461.828125 C 283.464844 462.039062 283.25 462.203125 283.003906 462.328125 C 282.757812 462.453125 282.5 462.523438 282.222656 462.542969 C 281.949219 462.5625 281.679688 462.53125 281.417969 462.445312 L 257.382812 454.476562 C 257.121094 454.386719 256.886719 454.253906 256.679688 454.074219 C 256.46875 453.894531 256.304688 453.679688 256.179688 453.433594 C 256.054688 453.1875 255.984375 452.925781 255.964844 452.648438 C 255.945312 452.375 255.976562 452.105469 256.066406 451.84375 C 256.152344 451.582031 256.285156 451.347656 256.464844 451.136719 C 256.644531 450.929688 256.859375 450.761719 257.105469 450.640625 C 257.351562 450.515625 257.613281 450.445312 257.886719 450.421875 C 258.164062 450.402344 258.429688 450.4375 258.691406 450.523438 Z M 306.492188 465.945312 L 330.121094 472.921875 C 330.386719 473 330.625 473.125 330.839844 473.296875 C 331.054688 473.472656 331.226562 473.679688 331.359375 473.921875 C 331.492188 474.164062 331.570312 474.421875 331.601562 474.695312 C 331.628906 474.972656 331.605469 475.242188 331.527344 475.503906 C 331.449219 475.769531 331.324219 476.011719 331.148438 476.226562 C 330.976562 476.4375 330.769531 476.613281 330.527344 476.746094 C 330.285156 476.875 330.027344 476.957031 329.75 476.984375 C 329.476562 477.015625 329.207031 476.992188 328.945312 476.914062 L 305.316406 469.9375 C 305.050781 469.859375 304.8125 469.734375 304.597656 469.558594 C 304.382812 469.386719 304.207031 469.179688 304.078125 468.933594 C 303.945312 468.691406 303.863281 468.433594 303.835938 468.160156 C 303.804688 467.886719 303.832031 467.617188 303.910156 467.351562 C 303.988281 467.085938 304.113281 466.847656 304.285156 466.632812 C 304.460938 466.417969 304.667969 466.246094 304.910156 466.113281 C 305.152344 465.980469 305.410156 465.898438 305.683594 465.871094 C 305.957031 465.839844 306.226562 465.867188 306.492188 465.945312 Z M 354.417969 479.632812 C 362.503906 481.789062 370.558594 483.855469 378.574219 485.832031 C 378.84375 485.898438 379.089844 486.015625 379.308594 486.179688 C 379.53125 486.339844 379.714844 486.542969 379.859375 486.777344 C 380 487.011719 380.09375 487.269531 380.132812 487.539062 C 380.175781 487.8125 380.164062 488.085938 380.097656 488.351562 C 380.03125 488.621094 379.917969 488.867188 379.753906 489.085938 C 379.589844 489.308594 379.390625 489.492188 379.152344 489.636719 C 378.917969 489.777344 378.664062 489.871094 378.390625 489.910156 C 378.117188 489.953125 377.847656 489.941406 377.578125 489.875 C 369.535156 487.890625 361.460938 485.816406 353.347656 483.65625 C 353.082031 483.585938 352.835938 483.464844 352.617188 483.296875 C 352.398438 483.128906 352.21875 482.925781 352.082031 482.6875 C 351.945312 482.449219 351.855469 482.191406 351.820312 481.917969 C 351.785156 481.644531 351.800781 481.375 351.871094 481.109375 C 351.941406 480.84375 352.0625 480.597656 352.230469 480.378906 C 352.398438 480.160156 352.601562 479.980469 352.839844 479.84375 C 353.078125 479.707031 353.335938 479.617188 353.609375 479.582031 C 353.882812 479.546875 354.152344 479.5625 354.417969 479.632812 Z M 402.5 491.496094 C 410.765625 493.367188 418.992188 495.144531 427.179688 496.820312 C 427.449219 496.878906 427.699219 496.980469 427.925781 497.136719 C 428.15625 497.292969 428.347656 497.484375 428.496094 497.714844 C 428.648438 497.945312 428.75 498.195312 428.804688 498.464844 C 428.855469 498.738281 428.855469 499.007812 428.800781 499.277344 C 428.742188 499.550781 428.640625 499.796875 428.484375 500.027344 C 428.328125 500.253906 428.136719 500.445312 427.90625 500.597656 C 427.675781 500.75 427.425781 500.851562 427.15625 500.902344 C 426.882812 500.957031 426.613281 500.953125 426.34375 500.898438 C 418.128906 499.214844 409.875 497.433594 401.582031 495.554688 C 401.3125 495.492188 401.066406 495.382812 400.839844 495.222656 C 400.617188 495.066406 400.429688 494.867188 400.28125 494.636719 C 400.136719 494.402344 400.039062 494.148438 399.992188 493.878906 C 399.945312 493.605469 399.953125 493.335938 400.011719 493.066406 C 400.074219 492.796875 400.183594 492.550781 400.34375 492.324219 C 400.503906 492.097656 400.699219 491.910156 400.933594 491.765625 C 401.164062 491.617188 401.417969 491.519531 401.691406 491.472656 C 401.960938 491.425781 402.234375 491.433594 402.5 491.496094 Z M 451.617188 501.566406 C 459.769531 503.0625 467.882812 504.457031 475.949219 505.757812 C 476.222656 505.800781 476.476562 505.894531 476.710938 506.039062 C 476.945312 506.183594 477.144531 506.367188 477.304688 506.59375 C 477.464844 506.816406 477.578125 507.0625 477.644531 507.332031 C 477.707031 507.597656 477.714844 507.871094 477.671875 508.140625 C 477.628906 508.414062 477.535156 508.667969 477.390625 508.902344 C 477.246094 509.136719 477.0625 509.335938 476.835938 509.496094 C 476.613281 509.660156 476.367188 509.773438 476.101562 509.835938 C 475.832031 509.898438 475.5625 509.910156 475.289062 509.867188 C 467.191406 508.5625 459.050781 507.164062 450.867188 505.664062 C 450.59375 505.613281 450.34375 505.511719 450.113281 505.363281 C 449.878906 505.214844 449.6875 505.023438 449.53125 504.796875 C 449.371094 504.570312 449.265625 504.324219 449.207031 504.050781 C 449.148438 503.78125 449.144531 503.511719 449.195312 503.242188 C 449.246094 502.96875 449.34375 502.71875 449.496094 502.484375 C 449.644531 502.253906 449.832031 502.058594 450.058594 501.902344 C 450.285156 501.746094 450.535156 501.636719 450.804688 501.582031 C 451.074219 501.523438 451.34375 501.519531 451.617188 501.566406 Z M 500.851562 509.46875 C 509.101562 510.601562 517.304688 511.628906 525.460938 512.550781 C 525.734375 512.582031 525.992188 512.664062 526.234375 512.796875 C 526.476562 512.929688 526.683594 513.105469 526.855469 513.320312 C 527.027344 513.535156 527.148438 513.777344 527.226562 514.042969 C 527.304688 514.308594 527.324219 514.578125 527.292969 514.851562 C 527.265625 515.125 527.179688 515.382812 527.046875 515.625 C 526.914062 515.867188 526.738281 516.074219 526.523438 516.246094 C 526.308594 516.417969 526.066406 516.542969 525.804688 516.617188 C 525.539062 516.695312 525.269531 516.714844 524.996094 516.6875 C 516.804688 515.761719 508.570312 514.730469 500.285156 513.59375 C 500.011719 513.554688 499.757812 513.46875 499.519531 513.328125 C 499.28125 513.1875 499.078125 513.007812 498.910156 512.789062 C 498.746094 512.570312 498.625 512.324219 498.554688 512.058594 C 498.488281 511.792969 498.46875 511.523438 498.507812 511.25 C 498.546875 510.976562 498.632812 510.71875 498.773438 510.480469 C 498.910156 510.242188 499.089844 510.039062 499.3125 509.875 C 499.53125 509.707031 499.773438 509.585938 500.039062 509.519531 C 500.308594 509.449219 500.578125 509.433594 500.851562 509.46875 Z M 550.210938 515.035156 C 558.585938 515.769531 566.910156 516.394531 575.179688 516.902344 C 575.457031 516.917969 575.71875 516.988281 575.964844 517.109375 C 576.214844 517.230469 576.429688 517.394531 576.613281 517.597656 C 576.796875 517.804688 576.929688 518.039062 577.019531 518.300781 C 577.109375 518.5625 577.148438 518.832031 577.128906 519.105469 C 577.113281 519.382812 577.042969 519.644531 576.921875 519.890625 C 576.800781 520.140625 576.640625 520.355469 576.433594 520.539062 C 576.226562 520.71875 575.992188 520.855469 575.730469 520.945312 C 575.46875 521.035156 575.203125 521.074219 574.925781 521.054688 C 566.617188 520.546875 558.257812 519.921875 549.84375 519.183594 C 549.570312 519.15625 549.3125 519.082031 549.066406 518.953125 C 548.820312 518.828125 548.609375 518.65625 548.433594 518.445312 C 548.257812 518.234375 548.125 517.996094 548.042969 517.734375 C 547.960938 517.472656 547.929688 517.203125 547.957031 516.925781 C 547.980469 516.652344 548.054688 516.390625 548.183594 516.148438 C 548.308594 515.902344 548.480469 515.691406 548.691406 515.515625 C 548.902344 515.335938 549.140625 515.207031 549.402344 515.125 C 549.664062 515.039062 549.933594 515.011719 550.210938 515.035156 Z M 599.824219 518.082031 C 608.242188 518.371094 616.605469 518.539062 624.90625 518.589844 C 625.183594 518.589844 625.449219 518.644531 625.703125 518.75 C 625.957031 518.859375 626.179688 519.011719 626.375 519.207031 C 626.570312 519.402344 626.71875 519.628906 626.824219 519.882812 C 626.925781 520.140625 626.976562 520.40625 626.976562 520.679688 C 626.972656 520.957031 626.921875 521.222656 626.8125 521.476562 C 626.707031 521.730469 626.554688 521.957031 626.359375 522.148438 C 626.164062 522.34375 625.9375 522.492188 625.679688 522.597656 C 625.425781 522.699219 625.160156 522.753906 624.882812 522.75 C 616.542969 522.703125 608.140625 522.535156 599.683594 522.242188 C 599.40625 522.234375 599.144531 522.171875 598.890625 522.058594 C 598.640625 521.941406 598.421875 521.785156 598.234375 521.582031 C 598.046875 521.382812 597.902344 521.152344 597.804688 520.894531 C 597.710938 520.632812 597.664062 520.367188 597.675781 520.09375 C 597.683594 519.816406 597.746094 519.550781 597.859375 519.300781 C 597.976562 519.050781 598.132812 518.832031 598.335938 518.640625 C 598.535156 518.453125 598.765625 518.3125 599.023438 518.214844 C 599.28125 518.117188 599.550781 518.074219 599.824219 518.082031 Z M 649.777344 518.363281 C 658.101562 518.164062 666.359375 517.839844 674.558594 517.390625 C 674.835938 517.375 675.101562 517.414062 675.363281 517.503906 C 675.621094 517.597656 675.855469 517.734375 676.0625 517.917969 C 676.265625 518.101562 676.429688 518.320312 676.546875 518.566406 C 676.667969 518.816406 676.734375 519.078125 676.75 519.355469 C 676.765625 519.628906 676.726562 519.898438 676.636719 520.160156 C 676.542969 520.417969 676.40625 520.652344 676.222656 520.859375 C 676.039062 521.0625 675.820312 521.226562 675.574219 521.34375 C 675.324219 521.464844 675.0625 521.53125 674.785156 521.546875 C 666.546875 522 658.242188 522.324219 649.878906 522.523438 C 649.601562 522.53125 649.335938 522.484375 649.078125 522.386719 C 648.820312 522.285156 648.59375 522.140625 648.394531 521.949219 C 648.191406 521.761719 648.039062 521.539062 647.925781 521.285156 C 647.8125 521.035156 647.753906 520.769531 647.75 520.496094 C 647.742188 520.21875 647.789062 519.953125 647.886719 519.695312 C 647.988281 519.4375 648.132812 519.207031 648.324219 519.007812 C 648.511719 518.808594 648.734375 518.652344 648.988281 518.542969 C 649.238281 518.429688 649.503906 518.371094 649.777344 518.363281 Z M 699.523438 515.617188 C 707.777344 514.894531 715.960938 514.042969 724.082031 513.058594 C 724.355469 513.027344 724.625 513.046875 724.890625 513.121094 C 725.15625 513.195312 725.398438 513.320312 725.613281 513.488281 C 725.832031 513.660156 726.007812 513.863281 726.144531 514.105469 C 726.277344 514.34375 726.363281 514.601562 726.398438 514.875 C 726.429688 515.152344 726.410156 515.421875 726.335938 515.6875 C 726.261719 515.953125 726.136719 516.195312 725.96875 516.410156 C 725.796875 516.628906 725.59375 516.804688 725.351562 516.941406 C 725.113281 517.074219 724.855469 517.160156 724.582031 517.191406 C 716.417969 518.179688 708.183594 519.039062 699.886719 519.765625 C 699.609375 519.789062 699.339844 519.757812 699.078125 519.675781 C 698.816406 519.59375 698.578125 519.460938 698.367188 519.285156 C 698.15625 519.109375 697.988281 518.898438 697.859375 518.652344 C 697.730469 518.40625 697.65625 518.148438 697.632812 517.871094 C 697.609375 517.597656 697.636719 517.328125 697.71875 517.066406 C 697.804688 516.800781 697.933594 516.566406 698.109375 516.351562 C 698.289062 516.140625 698.5 515.972656 698.742188 515.84375 C 698.988281 515.71875 699.25 515.640625 699.523438 515.617188 Z M 748.898438 509.613281 C 757.121094 508.324219 765.273438 506.894531 773.347656 505.328125 C 773.617188 505.273438 773.886719 505.277344 774.15625 505.332031 C 774.429688 505.386719 774.675781 505.492188 774.90625 505.644531 C 775.136719 505.800781 775.324219 505.992188 775.476562 506.222656 C 775.628906 506.453125 775.730469 506.703125 775.785156 506.972656 C 775.835938 507.246094 775.835938 507.515625 775.78125 507.785156 C 775.726562 508.054688 775.621094 508.304688 775.464844 508.535156 C 775.3125 508.761719 775.121094 508.953125 774.890625 509.105469 C 774.660156 509.257812 774.410156 509.359375 774.140625 509.414062 C 766.015625 510.992188 757.816406 512.429688 749.542969 513.726562 C 749.269531 513.769531 749 513.757812 748.730469 513.695312 C 748.464844 513.628906 748.21875 513.515625 747.996094 513.351562 C 747.773438 513.191406 747.589844 512.992188 747.445312 512.753906 C 747.300781 512.519531 747.207031 512.265625 747.164062 511.992188 C 747.121094 511.71875 747.132812 511.449219 747.199219 511.183594 C 747.261719 510.914062 747.375 510.667969 747.539062 510.445312 C 747.703125 510.222656 747.902344 510.039062 748.136719 509.894531 C 748.371094 509.75 748.625 509.65625 748.898438 509.613281 Z M 797.683594 500.128906 C 805.8125 498.234375 813.859375 496.191406 821.824219 494.003906 C 822.089844 493.929688 822.363281 493.910156 822.636719 493.945312 C 822.910156 493.980469 823.164062 494.066406 823.40625 494.203125 C 823.644531 494.339844 823.847656 494.515625 824.019531 494.734375 C 824.1875 494.953125 824.308594 495.195312 824.382812 495.460938 C 824.453125 495.726562 824.472656 495.996094 824.441406 496.269531 C 824.40625 496.542969 824.320312 496.800781 824.183594 497.039062 C 824.046875 497.28125 823.871094 497.484375 823.652344 497.652344 C 823.433594 497.824219 823.191406 497.945312 822.925781 498.019531 C 814.910156 500.21875 806.808594 502.273438 798.628906 504.183594 C 798.359375 504.246094 798.089844 504.253906 797.816406 504.210938 C 797.546875 504.164062 797.292969 504.070312 797.058594 503.925781 C 796.824219 503.777344 796.625 503.59375 796.464844 503.371094 C 796.304688 503.144531 796.191406 502.898438 796.128906 502.628906 C 796.066406 502.359375 796.058594 502.089844 796.101562 501.816406 C 796.148438 501.546875 796.242188 501.292969 796.390625 501.058594 C 796.535156 500.824219 796.71875 500.625 796.945312 500.464844 C 797.167969 500.304688 797.414062 500.191406 797.683594 500.128906 Z M 845.601562 486.96875 C 853.5625 484.4375 861.433594 481.757812 869.21875 478.925781 C 869.476562 478.832031 869.746094 478.792969 870.019531 478.804688 C 870.296875 478.816406 870.558594 478.878906 870.808594 478.996094 C 871.058594 479.113281 871.277344 479.273438 871.460938 479.476562 C 871.648438 479.679688 871.789062 479.914062 871.882812 480.171875 C 871.976562 480.433594 872.019531 480.699219 872.007812 480.976562 C 871.992188 481.25 871.929688 481.515625 871.8125 481.765625 C 871.695312 482.015625 871.535156 482.230469 871.332031 482.417969 C 871.128906 482.605469 870.898438 482.746094 870.636719 482.839844 C 862.800781 485.6875 854.875 488.386719 846.859375 490.933594 C 846.597656 491.019531 846.328125 491.046875 846.054688 491.023438 C 845.78125 491 845.519531 490.925781 845.273438 490.796875 C 845.03125 490.671875 844.816406 490.503906 844.640625 490.292969 C 844.460938 490.082031 844.332031 489.84375 844.25 489.582031 C 844.164062 489.316406 844.136719 489.046875 844.160156 488.773438 C 844.183594 488.5 844.257812 488.238281 844.382812 487.992188 C 844.511719 487.75 844.679688 487.535156 844.890625 487.359375 C 845.101562 487.179688 845.339844 487.050781 845.601562 486.96875 Z M 892.320312 469.980469 C 900.03125 466.808594 907.652344 463.480469 915.179688 460 C 915.429688 459.882812 915.691406 459.820312 915.96875 459.808594 C 916.242188 459.796875 916.511719 459.839844 916.769531 459.9375 C 917.027344 460.03125 917.257812 460.171875 917.460938 460.359375 C 917.664062 460.546875 917.824219 460.765625 917.941406 461.015625 C 918.054688 461.265625 918.117188 461.53125 918.128906 461.804688 C 918.140625 462.082031 918.097656 462.347656 918.003906 462.609375 C 917.90625 462.867188 917.765625 463.097656 917.578125 463.300781 C 917.394531 463.503906 917.175781 463.664062 916.921875 463.777344 C 909.34375 467.285156 901.667969 470.632812 893.902344 473.832031 C 893.648438 473.933594 893.382812 473.988281 893.105469 473.988281 C 892.832031 473.984375 892.566406 473.933594 892.308594 473.824219 C 892.054688 473.71875 891.832031 473.570312 891.636719 473.375 C 891.441406 473.175781 891.292969 472.953125 891.1875 472.695312 C 891.082031 472.441406 891.03125 472.175781 891.03125 471.898438 C 891.03125 471.625 891.085938 471.359375 891.191406 471.105469 C 891.296875 470.847656 891.449219 470.625 891.644531 470.429688 C 891.839844 470.234375 892.066406 470.085938 892.320312 469.980469 Z M 937.496094 449.089844 C 944.875 445.285156 952.15625 441.324219 959.34375 437.210938 C 959.582031 437.074219 959.839844 436.988281 960.113281 436.953125 C 960.386719 436.917969 960.65625 436.9375 960.921875 437.007812 C 961.1875 437.082031 961.429688 437.203125 961.648438 437.371094 C 961.867188 437.539062 962.046875 437.742188 962.183594 437.984375 C 962.320312 438.222656 962.40625 438.480469 962.441406 438.753906 C 962.476562 439.027344 962.457031 439.296875 962.382812 439.5625 C 962.3125 439.828125 962.191406 440.070312 962.023438 440.289062 C 961.851562 440.507812 961.648438 440.6875 961.410156 440.824219 C 954.171875 444.96875 946.835938 448.957031 939.402344 452.792969 C 939.15625 452.917969 938.898438 452.992188 938.621094 453.015625 C 938.347656 453.039062 938.078125 453.007812 937.816406 452.921875 C 937.550781 452.839844 937.316406 452.707031 937.105469 452.53125 C 936.894531 452.351562 936.726562 452.140625 936.601562 451.894531 C 936.472656 451.648438 936.398438 451.390625 936.375 451.113281 C 936.351562 450.839844 936.382812 450.570312 936.46875 450.308594 C 936.550781 450.042969 936.683594 449.808594 936.859375 449.597656 C 937.039062 449.386719 937.25 449.21875 937.496094 449.089844 Z M 980.65625 424.382812 C 987.65625 419.957031 994.558594 415.378906 1001.359375 410.648438 C 1001.585938 410.488281 1001.835938 410.382812 1002.105469 410.324219 C 1002.375 410.265625 1002.644531 410.257812 1002.917969 410.308594 C 1003.1875 410.355469 1003.4375 410.457031 1003.671875 410.605469 C 1003.902344 410.753906 1004.097656 410.941406 1004.257812 411.167969 C 1004.414062 411.394531 1004.519531 411.644531 1004.582031 411.914062 C 1004.640625 412.183594 1004.644531 412.453125 1004.59375 412.726562 C 1004.546875 412.996094 1004.445312 413.25 1004.296875 413.480469 C 1004.148438 413.714844 1003.960938 413.90625 1003.734375 414.066406 C 996.882812 418.832031 989.929688 423.441406 982.878906 427.902344 C 982.644531 428.046875 982.390625 428.144531 982.121094 428.191406 C 981.847656 428.238281 981.578125 428.234375 981.308594 428.171875 C 981.039062 428.113281 980.792969 428 980.566406 427.84375 C 980.339844 427.683594 980.15625 427.488281 980.007812 427.253906 C 979.859375 427.019531 979.761719 426.769531 979.714844 426.496094 C 979.667969 426.222656 979.675781 425.953125 979.738281 425.683594 C 979.796875 425.414062 979.90625 425.167969 980.066406 424.941406 C 980.226562 424.714844 980.421875 424.53125 980.65625 424.382812 Z M 1021.464844 396.003906 C 1028.050781 390.984375 1034.535156 385.816406 1040.917969 380.496094 C 1041.128906 380.320312 1041.367188 380.191406 1041.632812 380.109375 C 1041.894531 380.027344 1042.164062 380 1042.4375 380.023438 C 1042.714844 380.046875 1042.972656 380.125 1043.214844 380.253906 C 1043.460938 380.382812 1043.671875 380.550781 1043.847656 380.765625 C 1044.023438 380.976562 1044.152344 381.214844 1044.234375 381.476562 C 1044.316406 381.742188 1044.347656 382.011719 1044.320312 382.285156 C 1044.296875 382.558594 1044.21875 382.820312 1044.089844 383.0625 C 1043.960938 383.308594 1043.792969 383.519531 1043.582031 383.695312 C 1037.148438 389.054688 1030.617188 394.257812 1023.988281 399.3125 C 1023.769531 399.480469 1023.523438 399.601562 1023.257812 399.671875 C 1022.992188 399.742188 1022.722656 399.757812 1022.449219 399.722656 C 1022.175781 399.683594 1021.917969 399.597656 1021.679688 399.457031 C 1021.441406 399.320312 1021.238281 399.140625 1021.074219 398.921875 C 1020.90625 398.699219 1020.785156 398.457031 1020.714844 398.191406 C 1020.644531 397.925781 1020.628906 397.652344 1020.664062 397.378906 C 1020.703125 397.105469 1020.789062 396.851562 1020.929688 396.613281 C 1021.066406 396.375 1021.246094 396.171875 1021.464844 396.003906 Z M 1059.65625 364.195312 C 1065.796875 358.617188 1071.835938 352.894531 1077.777344 347.023438 C 1077.972656 346.832031 1078.199219 346.683594 1078.453125 346.578125 C 1078.710938 346.472656 1078.976562 346.421875 1079.25 346.425781 C 1079.527344 346.425781 1079.792969 346.480469 1080.046875 346.589844 C 1080.300781 346.695312 1080.523438 346.847656 1080.71875 347.042969 C 1080.914062 347.238281 1081.0625 347.464844 1081.164062 347.722656 C 1081.269531 347.976562 1081.320312 348.242188 1081.320312 348.519531 C 1081.316406 348.796875 1081.261719 349.058594 1081.15625 349.316406 C 1081.046875 349.570312 1080.894531 349.792969 1080.699219 349.988281 C 1074.71875 355.898438 1068.636719 361.660156 1062.449219 367.277344 C 1062.246094 367.464844 1062.015625 367.601562 1061.753906 367.695312 C 1061.496094 367.789062 1061.226562 367.828125 1060.953125 367.816406 C 1060.675781 367.800781 1060.414062 367.734375 1060.164062 367.617188 C 1059.914062 367.5 1059.699219 367.339844 1059.511719 367.136719 C 1059.328125 366.929688 1059.1875 366.699219 1059.09375 366.4375 C 1059 366.179688 1058.960938 365.910156 1058.976562 365.636719 C 1058.988281 365.359375 1059.054688 365.097656 1059.171875 364.847656 C 1059.289062 364.597656 1059.449219 364.378906 1059.65625 364.195312 Z M 1095.027344 329.265625 C 1100.6875 323.199219 1106.246094 316.988281 1111.707031 310.640625 C 1111.886719 310.429688 1112.101562 310.261719 1112.347656 310.136719 C 1112.59375 310.015625 1112.855469 309.941406 1113.128906 309.921875 C 1113.40625 309.898438 1113.671875 309.933594 1113.933594 310.019531 C 1114.195312 310.105469 1114.433594 310.238281 1114.640625 310.417969 C 1114.851562 310.597656 1115.015625 310.8125 1115.140625 311.058594 C 1115.265625 311.304688 1115.339844 311.566406 1115.359375 311.839844 C 1115.378906 312.117188 1115.347656 312.382812 1115.261719 312.648438 C 1115.175781 312.910156 1115.042969 313.144531 1114.863281 313.355469 C 1109.363281 319.746094 1103.765625 325.996094 1098.066406 332.105469 C 1097.878906 332.308594 1097.660156 332.46875 1097.410156 332.582031 C 1097.160156 332.695312 1096.894531 332.757812 1096.621094 332.765625 C 1096.34375 332.777344 1096.078125 332.734375 1095.816406 332.636719 C 1095.558594 332.539062 1095.328125 332.398438 1095.128906 332.207031 C 1094.925781 332.019531 1094.769531 331.800781 1094.652344 331.550781 C 1094.539062 331.296875 1094.476562 331.035156 1094.46875 330.757812 C 1094.457031 330.484375 1094.503906 330.214844 1094.597656 329.957031 C 1094.695312 329.699219 1094.839844 329.46875 1095.027344 329.265625 Z M 1127.480469 291.5625 C 1132.625 285.089844 1137.675781 278.484375 1142.625 271.75 C 1142.789062 271.527344 1142.988281 271.34375 1143.226562 271.203125 C 1143.460938 271.058594 1143.714844 270.96875 1143.988281 270.925781 C 1144.261719 270.882812 1144.53125 270.894531 1144.796875 270.960938 C 1145.066406 271.027344 1145.3125 271.144531 1145.535156 271.308594 C 1145.757812 271.46875 1145.9375 271.671875 1146.082031 271.90625 C 1146.222656 272.140625 1146.316406 272.398438 1146.359375 272.667969 C 1146.398438 272.941406 1146.386719 273.214844 1146.320312 273.480469 C 1146.253906 273.75 1146.140625 273.992188 1145.976562 274.214844 C 1140.996094 280.996094 1135.914062 287.640625 1130.734375 294.15625 C 1130.5625 294.371094 1130.359375 294.546875 1130.117188 294.679688 C 1129.875 294.8125 1129.617188 294.894531 1129.34375 294.925781 C 1129.070312 294.957031 1128.800781 294.9375 1128.535156 294.859375 C 1128.269531 294.785156 1128.027344 294.660156 1127.8125 294.488281 C 1127.597656 294.316406 1127.421875 294.109375 1127.289062 293.867188 C 1127.15625 293.625 1127.074219 293.367188 1127.042969 293.09375 C 1127.011719 292.820312 1127.03125 292.550781 1127.109375 292.285156 C 1127.183594 292.019531 1127.308594 291.78125 1127.480469 291.5625 Z M 1127.480469 291.5625 "/><path style=" stroke:none;fill-rule:nonzero;fill:#fafafa;fill-opacity:1;" d="M 254.074219 443.753906 L 254.074219 303.109375 L 280.617188 303.109375 L 280.617188 358.964844 L 284.234375 358.964844 L 329.878906 303.109375 L 363.859375 303.109375 L 305.148438 372.425781 L 365.871094 443.753906 L 330.882812 443.753906 L 284.234375 386.691406 L 280.617188 386.691406 L 280.617188 443.753906 Z M 254.074219 443.753906 "/><path style=" stroke:none;fill-rule:nonzero;fill:#fafafa;fill-opacity:1;" d="M 370.289062 443.753906 L 407.285156 303.109375 L 453.535156 303.109375 L 490.53125 443.753906 L 463.183594 443.753906 L 455.542969 412.8125 L 405.277344 412.8125 L 397.636719 443.753906 Z M 411.507812 388.300781 L 449.3125 388.300781 L 432.21875 319.785156 L 428.601562 319.785156 Z M 411.507812 388.300781 "/><path style=" stroke:none;fill-rule:nonzero;fill:#fafafa;fill-opacity:1;" d="M 507.378906 443.753906 L 507.378906 303.109375 L 556.640625 303.109375 L 580.972656 425.671875 L 584.589844 425.671875 L 608.921875 303.109375 L 658.183594 303.109375 L 658.183594 443.753906 L 632.449219 443.753906 L 632.449219 322.597656 L 628.828125 322.597656 L 604.699219 443.753906 L 560.863281 443.753906 L 536.734375 322.597656 L 533.117188 322.597656 L 533.117188 443.753906 Z M 507.378906 443.753906 "/><path style=" stroke:none;fill-rule:nonzero;fill:#fafafa;fill-opacity:1;" d="M 687.503906 443.753906 L 687.503906 303.109375 L 704.398438 303.109375 L 704.398438 428.484375 L 775.578125 428.484375 L 775.578125 443.753906 Z M 687.503906 443.753906 "/><path style=" stroke:none;fill-rule:nonzero;fill:#fafafa;fill-opacity:1;" d="M 842.59375 446.039062 C 832.027344 446.039062 822.914062 443.707031 815.25 439.046875 C 807.632812 434.335938 801.753906 427.773438 797.609375 419.351562 C 793.515625 410.886719 791.472656 401.039062 791.472656 389.8125 C 791.472656 378.585938 793.515625 368.695312 797.609375 360.132812 C 801.753906 351.523438 807.515625 344.816406 814.890625 340.011719 C 822.316406 335.160156 830.980469 332.734375 840.886719 332.734375 C 846.597656 332.734375 852.238281 333.683594 857.804688 335.585938 C 863.375 337.488281 868.441406 340.582031 873.015625 344.863281 C 877.582031 349.097656 881.226562 354.710938 883.941406 361.703125 C 886.652344 368.695312 888.007812 377.304688 888.007812 387.53125 L 888.007812 394.664062 L 803.464844 394.664062 L 803.464844 380.109375 L 870.871094 380.109375 C 870.871094 373.925781 869.632812 368.410156 867.15625 363.558594 C 864.730469 358.703125 861.257812 354.875 856.730469 352.070312 C 852.257812 349.261719 846.976562 347.859375 840.886719 347.859375 C 834.171875 347.859375 828.363281 349.523438 823.457031 352.855469 C 818.601562 356.136719 814.867188 360.417969 812.25 365.695312 C 809.632812 370.976562 808.324219 376.636719 808.324219 382.679688 L 808.324219 392.382812 C 808.324219 400.660156 809.753906 407.675781 812.605469 413.429688 C 815.507812 419.136719 819.53125 423.492188 824.671875 426.488281 C 829.816406 429.4375 835.789062 430.910156 842.59375 430.910156 C 847.019531 430.910156 851.019531 430.292969 854.59375 429.054688 C 858.210938 427.773438 861.328125 425.871094 863.945312 423.347656 C 866.5625 420.78125 868.589844 417.59375 870.015625 413.789062 L 886.292969 418.355469 C 884.582031 423.871094 881.703125 428.722656 877.65625 432.910156 C 873.609375 437.046875 868.613281 440.28125 862.660156 442.613281 C 856.710938 444.894531 850.023438 446.039062 842.59375 446.039062 Z M 842.59375 446.039062 "/><path style=" stroke:none;fill-rule:nonzero;fill:#fafafa;fill-opacity:1;" d="M 945.914062 446.324219 C 938.964844 446.324219 932.65625 445.015625 926.996094 442.398438 C 921.328125 439.734375 916.828125 435.90625 913.5 430.910156 C 910.167969 425.871094 908.503906 419.78125 908.503906 412.644531 C 908.503906 406.367188 909.738281 401.277344 912.214844 397.375 C 914.6875 393.429688 917.996094 390.335938 922.140625 388.101562 C 926.277344 385.867188 930.851562 384.199219 935.847656 383.105469 C 940.894531 381.964844 945.964844 381.0625 951.058594 380.394531 C 957.722656 379.539062 963.121094 378.898438 967.265625 378.46875 C 971.457031 377.992188 974.5 377.207031 976.40625 376.113281 C 978.355469 375.019531 979.332031 373.117188 979.332031 370.40625 L 979.332031 369.835938 C 979.332031 362.796875 977.40625 357.324219 973.546875 353.425781 C 969.742188 349.523438 963.957031 347.574219 956.195312 347.574219 C 948.152344 347.574219 941.847656 349.335938 937.277344 352.855469 C 932.707031 356.375 929.492188 360.132812 927.636719 364.128906 L 911.644531 358.417969 C 914.496094 351.761719 918.308594 346.574219 923.066406 342.863281 C 927.871094 339.105469 933.109375 336.492188 938.777344 335.015625 C 944.488281 333.496094 950.105469 332.734375 955.625 332.734375 C 959.148438 332.734375 963.191406 333.160156 967.765625 334.015625 C 972.382812 334.824219 976.835938 336.515625 981.117188 339.082031 C 985.449219 341.652344 989.042969 345.527344 991.898438 350.714844 C 994.757812 355.898438 996.183594 362.84375 996.183594 371.546875 L 996.183594 443.753906 L 979.332031 443.753906 L 979.332031 428.914062 L 978.476562 428.914062 C 977.332031 431.292969 975.429688 433.835938 972.765625 436.546875 C 970.09375 439.257812 966.554688 441.566406 962.125 443.46875 C 957.695312 445.371094 952.292969 446.324219 945.914062 446.324219 Z M 948.488281 431.195312 C 955.152344 431.195312 960.765625 429.890625 965.335938 427.273438 C 969.957031 424.65625 973.429688 421.277344 975.761719 417.140625 C 978.144531 413.003906 979.332031 408.648438 979.332031 404.082031 L 979.332031 388.671875 C 978.621094 389.527344 977.046875 390.3125 974.621094 391.027344 C 972.242188 391.691406 969.480469 392.285156 966.339844 392.808594 C 963.242188 393.285156 960.222656 393.714844 957.269531 394.09375 C 954.363281 394.429688 952.011719 394.710938 950.195312 394.949219 C 945.820312 395.523438 941.726562 396.449219 937.914062 397.734375 C 934.152344 398.96875 931.109375 400.847656 928.777344 403.371094 C 926.496094 405.84375 925.351562 409.222656 925.351562 413.503906 C 925.351562 419.351562 927.519531 423.777344 931.847656 426.773438 C 936.230469 429.722656 941.773438 431.195312 948.488281 431.195312 Z M 948.488281 431.195312 "/><path style=" stroke:none;fill-rule:nonzero;fill:#fafafa;fill-opacity:1;" d="M 1104.628906 358.703125 L 1089.492188 362.984375 C 1088.542969 360.464844 1087.136719 358.015625 1085.28125 355.636719 C 1083.46875 353.210938 1080.996094 351.210938 1077.855469 349.644531 C 1074.714844 348.074219 1070.691406 347.289062 1065.785156 347.289062 C 1059.074219 347.289062 1053.480469 348.835938 1049.003906 351.925781 C 1044.582031 354.96875 1042.367188 358.847656 1042.367188 363.558594 C 1042.367188 367.742188 1043.890625 371.046875 1046.933594 373.472656 C 1049.980469 375.902344 1054.738281 377.921875 1061.21875 379.539062 L 1077.496094 383.535156 C 1087.300781 385.914062 1094.613281 389.550781 1099.417969 394.453125 C 1104.226562 399.304688 1106.632812 405.558594 1106.632812 413.214844 C 1106.632812 419.496094 1104.820312 425.109375 1101.203125 430.054688 C 1097.632812 435.003906 1092.636719 438.902344 1086.207031 441.757812 C 1079.78125 444.609375 1072.304688 446.039062 1063.789062 446.039062 C 1052.601562 446.039062 1043.339844 443.613281 1036.011719 438.761719 C 1028.679688 433.910156 1024.042969 426.820312 1022.085938 417.496094 L 1038.082031 413.503906 C 1039.605469 419.398438 1042.484375 423.824219 1046.722656 426.773438 C 1051.003906 429.722656 1056.597656 431.195312 1063.5 431.195312 C 1071.355469 431.195312 1077.59375 429.53125 1082.210938 426.203125 C 1086.875 422.824219 1089.207031 418.78125 1089.207031 414.074219 C 1089.207031 410.265625 1087.871094 407.082031 1085.210938 404.511719 C 1082.542969 401.894531 1078.449219 399.945312 1072.929688 398.660156 L 1054.648438 394.378906 C 1044.601562 392 1037.226562 388.316406 1032.511719 383.320312 C 1027.847656 378.277344 1025.515625 371.976562 1025.515625 364.414062 C 1025.515625 358.230469 1027.253906 352.757812 1030.726562 348.003906 C 1034.246094 343.246094 1039.035156 339.511719 1045.078125 336.800781 C 1051.175781 334.089844 1058.078125 332.734375 1065.785156 332.734375 C 1076.640625 332.734375 1085.160156 335.113281 1091.351562 339.867188 C 1097.582031 344.625 1102.011719 350.902344 1104.628906 358.703125 Z M 1104.628906 358.703125 "/><g clip-rule="nonzero" clip-path="url(#b7ae9d02ac)"><path style=" stroke:none;fill-rule:nonzero;fill:#fafafa;fill-opacity:1;" d="M 1177.980469 446.039062 C 1167.414062 446.039062 1158.296875 443.707031 1150.632812 439.046875 C 1143.015625 434.335938 1137.136719 427.773438 1133 419.351562 C 1128.90625 410.886719 1126.859375 401.039062 1126.859375 389.8125 C 1126.859375 378.585938 1128.90625 368.695312 1133 360.132812 C 1137.136719 351.523438 1142.898438 344.816406 1150.277344 340.011719 C 1157.703125 335.160156 1166.363281 332.734375 1176.269531 332.734375 C 1181.980469 332.734375 1187.621094 333.683594 1193.191406 335.585938 C 1198.761719 337.488281 1203.828125 340.582031 1208.398438 344.863281 C 1212.96875 349.097656 1216.613281 354.710938 1219.324219 361.703125 C 1222.035156 368.695312 1223.394531 377.304688 1223.394531 387.53125 L 1223.394531 394.664062 L 1138.851562 394.664062 L 1138.851562 380.109375 L 1206.257812 380.109375 C 1206.257812 373.925781 1205.015625 368.410156 1202.542969 363.558594 C 1200.117188 358.703125 1196.640625 354.875 1192.121094 352.070312 C 1187.648438 349.261719 1182.359375 347.859375 1176.269531 347.859375 C 1169.554688 347.859375 1163.746094 349.523438 1158.847656 352.855469 C 1153.988281 356.136719 1150.25 360.417969 1147.632812 365.695312 C 1145.019531 370.976562 1143.707031 376.636719 1143.707031 382.679688 L 1143.707031 392.382812 C 1143.707031 400.660156 1145.136719 407.675781 1147.992188 413.429688 C 1150.894531 419.136719 1154.914062 423.492188 1160.058594 426.488281 C 1165.199219 429.4375 1171.171875 430.910156 1177.980469 430.910156 C 1182.40625 430.910156 1186.402344 430.292969 1189.976562 429.054688 C 1193.597656 427.773438 1196.714844 425.871094 1199.328125 423.347656 C 1201.949219 420.78125 1203.972656 417.59375 1205.398438 413.789062 L 1221.679688 418.355469 C 1219.96875 423.871094 1217.085938 428.722656 1213.042969 432.910156 C 1208.996094 437.046875 1203.996094 440.28125 1198.042969 442.613281 C 1192.09375 444.894531 1185.410156 446.039062 1177.980469 446.039062 Z M 1177.980469 446.039062 "/></g></g></svg>